<?xml version="1.0" encoding="UTF-8"?>
<svg width="99px" height="101px" viewBox="0 0 99 101" version="1.1" xmlns="http://www.w3.org/2000/svg" xmlns:xlink="http://www.w3.org/1999/xlink">
    <!-- Generator: Sketch 50.2 (55047) - http://www.bohemiancoding.com/sketch -->
    <title>Group 12</title>
    <desc>Created with Sketch.</desc>
    <defs>
        <polygon id="path-1" points="0.0622318923 0.104270174 91.1197523 0.104270174 91.1197523 100.562693 0.0622318923 100.562693"></polygon>
        <polygon id="path-3" points="0.0618792269 0.0394493204 22.0245136 0.0394493204 22.0245136 23.929007 0.0618792269 23.929007"></polygon>
        <polygon id="path-5" points="0 0.0804478405 90.154546 0.0804478405 90.154546 42.5232157 0 42.5232157"></polygon>
        <polygon id="path-7" points="0.0308829485 0.0391035138 22.9008664 0.0391035138 22.9008664 36.2249992 0.0308829485 36.2249992"></polygon>
    </defs>
    <g id="Page-1" stroke="none" stroke-width="1" fill="none" fill-rule="evenodd">
        <g id="Landing-Page-HIFI-Final" transform="translate(-526.000000, -3133.000000)">
            <g id="Group-11" transform="translate(193.000000, 2526.000000)">
                <g id="Group-13" transform="translate(66.000000, 599.000000)">
                    <g id="Group-12" transform="translate(266.000000, 8.000000)">
                        <g id="Group-7" opacity="0.247265625" transform="translate(50.000000, 50.819672) scale(-1, 1) translate(-50.000000, -50.819672) ">
                            <g id="Group-3">
                                <mask id="mask-2" fill="white">
                                    <use xlink:href="#path-1"></use>
                                </mask>
                                <g id="Clip-2"></g>
                                <path d="M76.3603318,10.9822496 C58.10399,-2.79835409 29.9597102,-5.55048261 15.7768653,14.9288888 C1.59402044,35.4082602 27.8014227,45.6323842 13.4130578,55.6100155 C-0.755078903,65.434656 -7.45213946,86.0444308 12.8361575,95.6962507 C32.6242465,105.109851 65.5042833,100.544289 68.7436188,84.785572 C71.9829543,69.0268555 67.2553394,60.3531266 82.7514106,52.0830835 C98.2474819,43.812909 89.9302939,21.2254153 76.3603318,10.9822496" id="Fill-1" fill="#F6E8B2" mask="url(#mask-2)"></path>
                            </g>
                            <g id="Group-6" transform="translate(76.298453, 59.751800)">
                                <mask id="mask-4" fill="white">
                                    <use xlink:href="#path-3"></use>
                                </mask>
                                <g id="Clip-5"></g>
                                <path d="M0.0618792269,11.9841625 C0.0618792269,18.5810239 4.97833614,23.929007 11.0432095,23.929007 C17.1079516,23.929007 22.0245398,18.5810239 22.0245398,11.9841625 C22.0245398,5.3873011 17.1079516,0.0394493204 11.0432095,0.0394493204 C4.97833614,0.0394493204 0.0618792269,5.3873011 0.0618792269,11.9841625" id="Fill-4" fill="#F6E8B2" mask="url(#mask-4)"></path>
                            </g>
                        </g>
                        <g id="Group" transform="translate(8.196721, 9.836066)">
                            <g id="Group-3" transform="translate(0.000000, 0.655061)">
                                <mask id="mask-6" fill="white">
                                    <use xlink:href="#path-5"></use>
                                </mask>
                                <g id="Clip-2"></g>
                                <path d="M86.4714733,3.08446568 C86.4714733,3.08446568 69.8522585,0.0804478405 45.076839,0.0804478405 C20.301331,0.0804478405 3.68220474,3.08446568 3.68220474,3.08446568 L3.68220474,3.08464282 C3.6446512,3.09155126 -7.97127122e-05,3.80436004 -7.97127122e-05,21.3018318 C-7.97127122e-05,38.7993035 3.6446512,39.5121123 3.68220474,39.5190207 L3.68220474,39.5191979 C3.68220474,39.5191979 20.301331,42.5232157 45.076839,42.5232157 C69.8522585,42.5232157 86.4714733,39.5191979 86.4714733,39.5191979 C86.4714733,39.5191979 90.1545549,38.8899989 90.1545549,21.3018318 C90.1545549,3.71366469 86.4714733,3.08446568 86.4714733,3.08446568" id="Fill-1" fill="#8C8C8C" mask="url(#mask-6)"></path>
                            </g>
                            <g id="Group-20" transform="translate(0.974266, 0.035074)">
                                <path d="M48.9876421,38.2784607 C47.4514896,38.2898861 45.8414699,38.2959975 44.1526233,38.2959975 C13.9813617,38.2959975 8.71128861,36.3553472 8.71128861,36.3553472 C8.31892493,35.6722092 8.02239364,35.0324704 7.80096944,34.4373708 C7.11455441,34.2942422 6.86815356,34.2034582 6.86815356,34.2034582 C4.06598602,29.3248631 5.88813005,26.5293383 5.88813005,26.5293383 L44.0376598,26.5293383 L44.1683001,26.5293383 L49.6334922,26.5293383 C50.7253792,23.4920183 52.327339,20.0643716 54.2912831,16.2345301 C60.8641277,3.41752311 50.9130584,0.134599343 50.897913,0.129550871 C48.7273358,0.0807489774 46.4767803,0.0535580856 44.1521804,0.0535580856 C19.8950707,0.0535580856 3.62358047,2.99469146 3.62358047,2.99469146 L3.62358047,2.99486859 C3.58682405,3.00159989 0.0184402074,3.69952897 0.0184402074,20.8309422 C0.0184402074,37.962444 3.58682405,38.6603731 3.62358047,38.6671044 L3.62358047,38.6672816 C3.62358047,38.6672816 19.8950707,41.6084149 44.1521804,41.6084149 C46.9252085,41.6084149 49.5923073,41.5696214 52.1441769,41.5015999 C50.692077,40.6063376 49.6560775,39.533493 48.9876421,38.2784607" id="Fill-4" fill="#A8A8A8"></path>
                                <path d="M44.1029888,36.2423943 C19.0918854,36.2423943 10.3684805,34.9729251 7.80102258,34.4373442 C8.02244678,35.0324439 8.31897807,35.6722712 8.71125318,36.3553206 C8.71125318,36.3553206 13.9813263,38.2960595 44.1526764,38.2960595 C45.8414345,38.2960595 47.4515427,38.2898596 48.9876067,38.2784341 C48.6490934,37.6426809 48.4051725,36.9598087 48.248227,36.2300831 C46.9185304,36.2381429 45.5379062,36.2423943 44.1029888,36.2423943" id="Fill-6" fill="#FFFFFF"></path>
                                <path d="M49.6334037,26.5293117 L44.1683887,26.5293117 L44.0376598,26.5293117 L5.88813005,26.5293117 C5.88813005,26.5293117 4.06598602,29.3248365 6.86815356,34.2034317 C6.86815356,34.2034317 7.11455441,34.2942156 7.80096944,34.4373442 C10.3685159,34.9729251 19.0919208,36.2423943 44.1030243,36.2423943 C45.5379416,36.2423943 46.9185658,36.2380544 48.2480853,36.2300831 C47.8121453,34.2040517 48.0504863,31.8143531 48.8228139,29.050802 C49.0486666,28.2422493 49.3196898,27.4020774 49.6334037,26.5293117" id="Fill-8" fill="#FFCC09"></path>
                                <path d="M88.2868949,20.8309245 C88.2868949,3.61076444 84.6808689,2.99467374 84.6808689,2.99467374 C84.6808689,2.99467374 71.3777916,0.590449773 50.897913,0.129621727 C50.9130584,0.134581629 60.8641277,3.41759396 54.2912831,16.2345124 C52.327339,20.0643539 50.7253792,23.4920005 49.6334922,26.5293206 L82.3178299,26.5293206 C82.3178299,26.5293206 84.1400625,29.3248454 81.3378064,34.2034405 C81.3378064,34.2034405 81.1170907,34.2845704 80.5128684,34.4145021 C80.2905585,35.0160673 79.9914587,35.6635117 79.5941351,36.3553295 C79.5941351,36.3553295 74.8968421,38.0848296 48.9876421,38.2784429 C49.6560775,39.5334753 50.692077,40.6063198 52.1441769,41.5015822 C71.9154095,40.9740612 84.6808689,38.6672638 84.6808689,38.6672638 C84.6808689,38.6672638 88.2868949,38.0511731 88.2868949,20.8309245" id="Fill-10" fill="#C9C9C9"></path>
                                <path d="M48.9876421,38.2784607 C74.8968421,38.0847588 79.5940465,36.3553472 79.5940465,36.3553472 C79.9914587,35.6635294 80.2905585,35.0160851 80.5128684,34.4145198 C78.2247593,34.9063472 70.4314245,36.0969894 48.2481739,36.2301097 C48.4052079,36.9597467 48.6491288,37.6426189 48.9876421,38.2784607" id="Fill-12" fill="#FFFFFF"></path>
                                <path d="M82.3178653,26.5293117 L49.6334391,26.5293117 C49.3197253,27.4020774 49.0487021,28.2422493 48.8227608,29.050802 C48.0505218,31.8143531 47.8120922,34.2040517 48.2481207,36.2300831 C70.43146,36.0969629 78.2247947,34.9063207 80.5127267,34.4144932 C81.1170376,34.2846501 81.3378418,34.2034317 81.3378418,34.2034317 C84.1400093,29.3248365 82.3178653,26.5293117 82.3178653,26.5293117" id="Fill-14" fill="#FFD947"></path>
                                <path d="M42.7868168,8.28637557 C42.7868168,12.0504098 45.5630334,15.1017239 48.9876687,15.1017239 C52.4123039,15.1017239 55.1885206,12.0504098 55.1885206,8.28637557 C55.1885206,4.5223413 52.4123039,1.47102725 48.9876687,1.47102725 C45.5630334,1.47102725 42.7868168,4.5223413 42.7868168,8.28637557" id="Fill-16" fill="#C9C9C9"></path>
                                <path d="M35.6642203,9.88314519 C35.6642203,11.3200997 36.7240451,12.4848795 38.0314221,12.4848795 C39.338622,12.4848795 40.3984468,11.3200997 40.3984468,9.88314519 C40.3984468,8.4461907 39.338622,7.28141083 38.0314221,7.28141083 C36.7240451,7.28141083 35.6642203,8.4461907 35.6642203,9.88314519" id="Fill-18" fill="#C9C9C9"></path>
                            </g>
                            <g id="Group-30" transform="translate(5.668460, 46.622725)">
                                <path d="M23.2294357,12.1284309 C25.6974299,8.30532062 26.6647879,4.49638153 27.0218123,2.56609392 C27.1317273,1.97170279 26.984613,1.35490354 26.618466,0.873970176 C26.2515218,0.392239686 25.6950385,0.0860543013 25.0883362,0.0336210506 L25.0769107,0.0327353538 C25.0153548,0.0273326033 24.952736,0.0246755129 24.8910029,0.0246755129 C23.8575719,0.0246755129 22.968598,0.764320912 22.7773761,1.78340365 C22.4679136,3.4325711 21.63775,6.67625849 19.5543254,9.87078972 C17.860076,12.4681842 15.6677993,14.5346034 13.0382541,16.0125656 C9.9880914,17.7270089 6.29978421,18.6709846 2.07580759,18.8181874 C0.913153403,18.8587523 0.00239138136,19.8024622 0.00239138136,20.9666221 L0.00239138136,20.9772505 C0.00239138136,22.1636413 0.968509453,23.1286966 2.15605172,23.1286966 C2.18129408,23.1286966 2.20697929,23.1282537 2.23257593,23.1274566 C7.17874972,22.9541257 11.5472721,21.8126397 15.2164482,19.7346179 C18.4620841,17.8964427 21.1580566,15.3373104 23.2294357,12.1284309" id="Fill-21" fill="#FFCC09"></path>
                                <g id="Group-25" transform="translate(14.082579, 0.000000)">
                                    <mask id="mask-8" fill="white">
                                        <use xlink:href="#path-7"></use>
                                    </mask>
                                    <g id="Clip-24"></g>
                                    <path d="M20.7465442,0.0391035138 C20.6962366,0.0391035138 20.645309,0.0409634771 20.5920786,0.044594834 C19.4807949,0.122359013 18.5999694,1.05579487 18.5869497,2.16973574 C18.5640987,4.09187494 18.3003382,8.00940046 16.7890737,12.6493003 C15.550161,16.4531024 13.7259799,19.9578932 11.367015,23.0659804 C8.64278882,26.6554438 5.1780315,29.7384658 1.06848691,32.2295766 C0.0669409643,32.8368104 -0.263689652,34.112568 0.315998905,35.1340422 C0.697999936,35.8069946 1.41692003,36.2250435 2.19225901,36.2250435 C2.58736835,36.2250435 2.97548069,36.1162799 3.31479114,35.910444 C7.88542948,33.1381244 11.7501675,29.6937381 14.8018358,25.6729404 C17.4527263,22.1800179 19.5007231,18.2475241 20.8892299,13.9845768 C22.5865793,8.7726054 22.8780621,4.37370366 22.9007359,2.2154377 C22.9070244,1.63636913 22.6858659,1.0907799 22.2787111,0.679196592 C21.8703163,0.266373313 21.3260556,0.0391035138 20.7465442,0.0391035138" id="Fill-23" fill="#FFCC09" mask="url(#mask-8)"></path>
                                </g>
                                <path d="M76.7416157,18.818214 C72.5178162,18.6710111 68.829509,17.7270355 65.7792578,16.0125922 C63.149624,14.5346299 60.9573473,12.4682107 59.263275,9.87081629 C57.1802047,6.67672791 56.3496868,3.43277481 56.0402243,1.78334165 C55.8488252,0.764347483 54.9600285,0.0247020838 53.9265975,0.0247020838 C53.8648644,0.0247020838 53.8022456,0.0273591742 53.7439668,0.032407646 L53.7259871,0.0339133305 C53.1223848,0.0860808722 52.5659015,0.392266257 52.1991344,0.873908177 C51.8328102,1.35493011 51.685696,1.97172936 51.7957881,2.56612049 C52.1526354,4.49631953 53.1201705,8.30525862 55.5879875,12.1284574 C57.6595438,15.337337 60.3555163,17.8964693 63.6011522,19.7346444 C67.2701512,21.8126663 71.6386735,22.9540637 76.5852016,23.1273946 C76.6107983,23.1282803 76.6361292,23.1287231 76.6615487,23.1287231 C77.849091,23.1287231 78.815209,22.1635793 78.815209,20.977277 L78.815209,20.9666487 C78.815209,19.8024002 77.904447,18.8587789 76.7416157,18.818214" id="Fill-26" fill="#FFCC09"></path>
                                <path d="M63.6661624,32.2295146 C59.5769002,29.7506264 56.1252512,26.6849641 53.4073134,23.1178202 C51.0496771,20.0234613 49.2229275,16.5339045 47.9775492,12.7463107 C46.4453823,8.08612838 46.1748905,4.1170553 46.1497367,2.16595381 C46.1357427,1.05307578 45.2543858,0.120968469 44.1392935,0.0436471384 C44.0886317,0.0400157815 44.0383241,0.0383329576 43.9882822,0.0383329576 C43.4087708,0.0383329576 42.8647758,0.265602757 42.4562925,0.678426036 C42.0489605,1.08992077 41.8280677,1.63551 41.8340905,2.21449 C41.8567643,4.37284454 42.14807,8.77192341 43.8457736,13.9846034 C45.2341919,18.2474621 47.2823658,22.1799559 49.9331677,25.6729669 C52.9846589,29.6936761 56.8495741,33.138151 61.4201238,35.9104705 C61.7595229,36.1163065 62.1476352,36.2249815 62.5427445,36.2249815 C63.3180835,36.2249815 64.0370036,35.8070212 64.4190046,35.1340687 C64.9986932,34.1125946 64.6681511,32.8366598 63.6661624,32.2295146" id="Fill-28" fill="#FFCC09"></path>
                            </g>
                        </g>
                    </g>
                </g>
            </g>
        </g>
    </g>
</svg>