<?xml version="1.0" encoding="UTF-8"?>
<svg width="104px" height="18px" viewBox="0 0 104 18" version="1.1" xmlns="http://www.w3.org/2000/svg" xmlns:xlink="http://www.w3.org/1999/xlink">
    <!-- Generator: Sketch 50.2 (55047) - http://www.bohemiancoding.com/sketch -->
    <title>Group</title>
    <desc>Created with Sketch.</desc>
    <defs></defs>
    <g id="Page-1" stroke="none" stroke-width="1" fill="none" fill-rule="evenodd">
        <g id="Landing-Page-HIFI-Final" transform="translate(-667.000000, -3925.000000)" fill="#FFCC09" fill-rule="nonzero">
            <g id="Group-10" transform="translate(109.000000, 3864.000000)">
                <g id="Group-4-Copy-8" transform="translate(368.000000, 0.000000)">
                    <g id="Group-6" transform="translate(93.000000, 22.000000)">
                        <g id="Group" transform="translate(97.000000, 39.000000)">
                            <polygon id="Shape" points="9.31051852 0 12.1872593 5.82953086 18.6206914 6.76459259 13.9654321 11.3019753 15.0643457 17.7094815 9.31051852 14.6844444 3.55634568 17.7094815 4.65525926 11.3019753 0 6.76459259 6.4334321 5.82953086"></polygon>
                            <polygon id="Shape" points="30.6438519 0 33.5205926 5.82953086 39.9540247 6.76459259 35.2987654 11.3019753 36.397679 17.7094815 30.6438519 14.6844444 24.889679 17.7094815 25.9885926 11.3019753 21.3333333 6.76459259 27.7667654 5.82953086"></polygon>
                            <polygon id="Shape" points="51.9771852 0 54.8539259 5.82953086 61.287358 6.76459259 56.6320988 11.3019753 57.7310123 17.7094815 51.9771852 14.6844444 46.2230123 17.7094815 47.3219259 11.3019753 42.6666667 6.76459259 49.1000988 5.82953086"></polygon>
                            <polygon id="Shape" points="73.3105185 0 76.1872593 5.82953086 82.6206914 6.76459259 77.9654321 11.3019753 79.0643457 17.7094815 73.3105185 14.6844444 67.5563457 17.7094815 68.6552593 11.3019753 64 6.76459259 70.4334321 5.82953086"></polygon>
                            <polygon id="Shape" points="94.6438519 0 97.5205926 5.82953086 103.954025 6.76459259 99.2987654 11.3019753 100.397679 17.7094815 94.6438519 14.6844444 88.889679 17.7094815 89.9885926 11.3019753 85.3333333 6.76459259 91.7667654 5.82953086"></polygon>
                        </g>
                    </g>
                </g>
            </g>
        </g>
    </g>
</svg>