<?xml version="1.0" encoding="UTF-8"?>
<svg width="33px" height="33px" viewBox="0 0 33 33" version="1.1" xmlns="http://www.w3.org/2000/svg" xmlns:xlink="http://www.w3.org/1999/xlink">
    <!-- Generator: Sketch 50.2 (55047) - http://www.bohemiancoding.com/sketch -->
    <title>whatsapp</title>
    <desc>Created with Sketch.</desc>
    <defs></defs>
    <g id="Page-1" stroke="none" stroke-width="1" fill="none" fill-rule="evenodd">
        <g id="Landing-Page-HIFI-Final-(Notification)" transform="translate(-539.000000, -591.000000)" fill="#FFFFFF" fill-rule="nonzero">
            <g id="Group-26" transform="translate(323.000000, 129.000000)">
                <g id="Group-3" transform="translate(186.000000, 456.000000)">
                    <g id="Group-2">
                        <g id="Group-23">
                            <g id="whatsapp" transform="translate(30.000000, 6.000000)">
                                <g id="Group">
                                    <path d="M0.05094375,32.9391562 L2.35300312,24.7629937 C0.87264375,22.2480844 0.093225,19.386675 0.093225,16.4472 C0.093225,7.39643437 7.45655625,0.033103125 16.5073219,0.033103125 C25.5580875,0.033103125 32.9213156,7.39643437 32.9213156,16.4472 C32.9213156,25.4979656 25.5580875,32.8612969 16.5073219,32.8612969 C13.6871625,32.8612969 10.9256812,32.1394219 8.48275312,30.7686844 L0.05094375,32.9391562 Z M8.91381562,27.7824937 L9.41624062,28.0892906 C11.5461844,29.3895937 13.9982906,30.0769219 16.5073219,30.0769219 C24.0227625,30.0769219 30.1369406,23.9626406 30.1369406,16.4472 C30.1369406,8.93175937 24.0227625,2.81747812 16.5073219,2.81747812 C8.99188125,2.81747812 2.8776,8.93175937 2.8776,16.4472 C2.8776,19.0658531 3.62185312,21.6088125 5.02971562,23.8011469 L5.36806875,24.3280125 L4.04239687,29.0364937 L8.91381562,27.7824937 Z" id="Shape"></path>
                                    <path d="M11.8963969,8.80759687 L10.8313219,8.7495375 C10.4967844,8.73128437 10.1686406,8.84307187 9.91577813,9.06272812 C9.39943125,9.51111562 8.5738125,10.3779844 8.32022812,11.5076156 C7.94206875,13.1919563 8.52647812,15.2544563 10.0390125,17.3169563 C11.5515469,19.3794563 14.3702625,22.6794563 19.3546031,24.0888656 C20.960775,24.5430281 22.2242625,24.23685 23.1991031,23.6132531 C23.9712,23.1193875 24.5034281,22.3266656 24.6952406,21.4305094 L24.8652938,20.6362406 C24.9193313,20.3837906 24.7911469,20.1276281 24.5566406,20.0195531 L20.9570625,18.360375 C20.7233813,18.2527125 20.4462844,18.320775 20.2891219,18.5244469 L18.876,20.3563594 C18.7692656,20.4947531 18.5865281,20.5496156 18.4215281,20.4916594 C17.4538031,20.1515531 14.2121719,18.7939125 12.4334719,15.3676875 C12.3563344,15.2190844 12.3755156,15.0387188 12.4849313,14.9119781 L13.8354563,13.3496344 C13.9734375,13.1901 14.0082938,12.9658031 13.9253813,12.7719281 L12.3737625,9.141825 C12.2911594,8.94856875 12.10605,8.81904375 11.8963969,8.80759687 Z" id="Shape"></path>
                                </g>
                            </g>
                        </g>
                    </g>
                </g>
            </g>
        </g>
    </g>
</svg>