<?xml version="1.0" encoding="UTF-8"?>
<svg width="24px" height="17px" viewBox="0 0 24 17" version="1.1" xmlns="http://www.w3.org/2000/svg" xmlns:xlink="http://www.w3.org/1999/xlink">
    <!-- Generator: Sketch 50.2 (55047) - http://www.bohemiancoding.com/sketch -->
    <title>youtube (3)</title>
    <desc>Created with Sketch.</desc>
    <defs></defs>
    <g id="Page-1" stroke="none" stroke-width="1" fill="none" fill-rule="evenodd">
        <g id="Landing-Page-HIFI-Final" transform="translate(-335.000000, -5255.000000)" fill="#FFFFFF" fill-rule="nonzero">
            <g id="youtube-(3)" transform="translate(335.000000, 5255.000000)">
                <path d="M19.0155076,0 L4.98449244,0 C2.23163073,0 0,2.23386345 0,4.98947936 L0,12.0105206 C0,14.7661365 2.23163073,17 4.98449244,17 L19.0155076,17 C21.7683693,17 24,14.7661365 24,12.0105206 L24,4.98947936 C24,2.23386345 21.7683693,0 19.0155076,0 Z M15.6445301,8.84159882 L9.08176772,11.9747713 C8.90689608,12.0582559 8.70490086,11.9306319 8.70490086,11.7367205 L8.70490086,5.27453589 C8.70490086,5.07786252 8.91220626,4.95039483 9.08744233,5.03929911 L15.6502047,8.36831118 C15.8453279,8.46727322 15.8419439,8.74737904 15.6445301,8.84159882 Z" id="Shape"></path>
            </g>
        </g>
    </g>
</svg>