<?xml version="1.0" encoding="UTF-8"?>
<svg width="99px" height="103px" viewBox="0 0 99 103" version="1.1" xmlns="http://www.w3.org/2000/svg" xmlns:xlink="http://www.w3.org/1999/xlink">
    <!-- Generator: Sketch 50.2 (55047) - http://www.bohemiancoding.com/sketch -->
    <title>Group 5</title>
    <desc>Created with Sketch.</desc>
    <defs>
        <polygon id="path-1" points="0.0622318923 0.104270174 91.1197523 0.104270174 91.1197523 100.562693 0.0622318923 100.562693"></polygon>
        <polygon id="path-3" points="0.0618792269 0.0394493204 22.0245136 0.0394493204 22.0245136 23.929007 0.0618792269 23.929007"></polygon>
        <polygon id="path-5" points="0.0252902082 0.0663712893 17.3712023 0.0663712893 17.3712023 32.64 0.0252902082 32.64"></polygon>
        <polygon id="path-7" points="0 0.00397873283 18.6768631 0.00397873283 18.6768631 64.4580328 0 64.4580328"></polygon>
    </defs>
    <g id="Page-1" stroke="none" stroke-width="1" fill="none" fill-rule="evenodd">
        <g id="Landing-Page-HIFI-Final" transform="translate(-307.000000, -3133.000000)">
            <g id="Group-11" transform="translate(193.000000, 2526.000000)">
                <g id="Group-13" transform="translate(66.000000, 599.000000)">
                    <g id="Group-5" transform="translate(48.000000, 8.000000)">
                        <g id="Group-7" opacity="0.247265625" transform="translate(0.000000, 1.639344)">
                            <g id="Group-3">
                                <mask id="mask-2" fill="white">
                                    <use xlink:href="#path-1"></use>
                                </mask>
                                <g id="Clip-2"></g>
                                <path d="M76.3603318,10.9822496 C58.10399,-2.79835409 29.9597102,-5.55048261 15.7768653,14.9288888 C1.59402044,35.4082602 27.8014227,45.6323842 13.4130578,55.6100155 C-0.755078903,65.434656 -7.45213946,86.0444308 12.8361575,95.6962507 C32.6242465,105.109851 65.5042833,100.544289 68.7436188,84.785572 C71.9829543,69.0268555 67.2553394,60.3531266 82.7514106,52.0830835 C98.2474819,43.812909 89.9302939,21.2254153 76.3603318,10.9822496" id="Fill-1" fill="#F6E8B2" mask="url(#mask-2)"></path>
                            </g>
                            <g id="Group-6" transform="translate(76.298453, 59.751800)">
                                <mask id="mask-4" fill="white">
                                    <use xlink:href="#path-3"></use>
                                </mask>
                                <g id="Clip-5"></g>
                                <path d="M0.0618792269,11.9841625 C0.0618792269,18.5810239 4.97833614,23.929007 11.0432095,23.929007 C17.1079516,23.929007 22.0245398,18.5810239 22.0245398,11.9841625 C22.0245398,5.3873011 17.1079516,0.0394493204 11.0432095,0.0394493204 C4.97833614,0.0394493204 0.0618792269,5.3873011 0.0618792269,11.9841625" id="Fill-4" fill="#F6E8B2" mask="url(#mask-4)"></path>
                            </g>
                        </g>
                        <g id="Group" transform="translate(18.032787, 0.000000)">
                            <g id="Group-10" transform="translate(15.241471, 0.022153)">
                                <path d="M29.9862827,20.8903766 C29.9862827,20.8903766 32.265237,22.9418609 33.0389189,27.2090297 C33.0389189,27.2090297 27.2055117,35.8119539 21.9778644,38.734949 L18.2815419,35.9379619 L29.9862827,20.8903766 Z" id="Fill-1" fill="#EFB90A"></path>
                                <path d="M26.2294816,13.8921843 C26.2294816,13.8921843 29.7710855,15.4029508 30.818405,19.1869118 C30.818405,19.1869118 26.0721932,29.8706513 18.2815862,35.9379973 L15.4089233,32.9851396 L26.2294816,13.8921843 Z" id="Fill-3" fill="#FFCC09"></path>
                                <path d="M15.4580416,4.52540541 C15.4580416,4.52540541 22.804342,3.47994683 26.1931768,7.18619406 C26.1931768,7.18619406 28.9709349,19.746584 16.5592379,33.5464067 L11.2362428,31.4512362 L15.4580416,4.52540541 Z" id="Fill-5" fill="#FFD947"></path>
                                <g id="Group-9">
                                    <mask id="mask-6" fill="white">
                                        <use xlink:href="#path-5"></use>
                                    </mask>
                                    <g id="Clip-8"></g>
                                    <path d="M0.167159947,30.3738059 C0.167159947,30.3738059 5.80987151,15.231759 0.0252902082,4.4890031 C0.0252902082,4.4890031 8.20951706,-0.383748339 13.2321134,0.100079752 C13.2321134,0.100079752 23.691307,14.9265751 11.3571467,32.64 L0.167159947,30.3738059 Z" id="Fill-7" fill="#FFE379" mask="url(#mask-6)"></path>
                                </g>
                            </g>
                            <g id="Group-18" transform="translate(0.000000, 29.618963)">
                                <path d="M7.97498449,64.5689854 L24.3383872,21.6314577 C24.3383872,21.6314577 24.9823394,19.395658 29.3136642,18.3380594 C33.6449003,17.280638 37.2192911,9.13814798 37.2192911,9.13814798 C37.2192911,9.13814798 36.6932831,7.3066903 33.5891626,5.09003101 C33.5891626,5.09003101 31.7467169,11.0289765 28.6449003,13.1816571 C25.5429951,15.3343376 23.7263358,18.2598139 22.3282853,21.7022596 C20.9301462,25.1447054 10.0655472,53.7046522 7.47485157,59.7992911 C4.88415596,65.8938414 2.64844484,66.9433762 2.64844484,66.9433762 C4.77498449,67.7586176 7.15983163,66.6956136 7.97498449,64.5689854" id="Fill-11" fill="#6D6D6D"></path>
                                <path d="M27.4747364,1.92965884 C23.4954719,0.404182543 20.6204165,0.0413114754 18.6768631,0.0926185202 C15.8478866,4.9596101 15.7466903,10.2940363 16.8112007,13.1464067 C17.8757997,15.9988658 17.8405317,17.1595215 17.0111121,19.4614267 C16.1816925,21.7633319 2.02537882,58.4355516 1.22263181,60.6131325 C0.419973416,62.7907133 0.266318121,64.5464953 0.266318121,64.5466726 C0.667470093,65.6102969 1.50344705,66.5044927 2.64841825,66.9433939 C2.64841825,66.9433939 4.88412938,65.8938591 7.4749136,59.7993088 C10.0655206,53.7045813 20.9302082,25.1446345 22.3282588,21.7022774 C23.7263093,18.2598316 25.5429685,15.3342667 28.6448737,13.1816748 C31.7466903,11.0289942 33.589136,5.09004874 33.589136,5.09004874 C32.162109,4.07108551 30.1908197,2.97086398 27.4747364,1.92965884" id="Fill-13" fill="#8C8C8C"></path>
                                <g id="Group-17" transform="translate(0.000000, 0.088613)">
                                    <mask id="mask-8" fill="white">
                                        <use xlink:href="#path-7"></use>
                                    </mask>
                                    <g id="Clip-16"></g>
                                    <path d="M17.0111121,19.3727869 C17.8405317,17.0708817 17.8757997,15.9103146 16.8112007,13.0577669 C15.7466903,10.2053965 15.8478866,4.87105893 18.6768631,0.00397873283 C16.4078334,0.0638812583 15.4086309,0.688338502 15.4086309,0.688338502 C15.4086309,0.688338502 12.6241382,9.13361985 15.1385379,12.8154984 C17.6530261,16.4972884 16.6373416,18.5905981 16.6373416,18.5905981 L0.273938857,61.5282144 C-0.102312805,62.5097829 -0.0776783341,63.5461143 0.266318121,64.4580328 C0.266318121,64.4578556 0.419973416,62.7021622 1.22263181,60.5244927 C2.02537882,58.3469118 16.1816925,21.6747807 17.0111121,19.3727869" id="Fill-15" fill="#A8A8A8" mask="url(#mask-8)"></path>
                                </g>
                            </g>
                            <g id="Group-47" transform="translate(16.747895, 32.100133)">
                                <path d="M12.8288082,13.2719805 C14.4574302,13.2719805 15.7775897,11.951821 15.7775897,10.3232875 C15.7775897,8.69466549 14.4574302,7.37441737 12.8288082,7.37441737 C11.2002747,7.37441737 9.8801152,8.69466549 9.8801152,10.3232875 C9.8801152,11.951821 11.2002747,13.2719805 12.8288082,13.2719805" id="Fill-19" fill="#FFE379"></path>
                                <path d="M42.4233673,0.0419583518 C38.9325388,0.0419583518 36.1026761,2.87190961 36.1026761,6.36264953 C36.1026761,9.85347807 38.9325388,12.6832521 42.4233673,12.6832521 C45.9141072,12.6832521 48.7439699,9.85347807 48.7439699,6.36264953 C48.7439699,2.87190961 45.9141072,0.0419583518 42.4233673,0.0419583518" id="Fill-21" fill="#FFCC09"></path>
                                <path d="M24.1490563,21.5683917 C24.1490563,21.9436686 24.1084714,22.3094639 24.032973,22.6623217 C23.8751529,23.4002038 23.5613735,24.0802215 23.1271688,24.6658662 C22.8321755,25.0636509 22.4817102,25.417572 22.0872929,25.7169074 C22.3459548,25.9404785 22.5925654,26.1773416 22.8248206,26.4280284 C23.1665131,26.7968365 23.4781657,27.193735 23.7562339,27.6150022 C23.8873815,27.8137616 24.0112627,28.0174834 24.1270802,28.2266105 C24.856101,29.5434914 25.2724945,31.0575366 25.2724945,32.6693221 C25.2724945,33.1898361 25.2268587,33.6995392 25.1437395,34.1964821 C26.2660257,34.1449092 27.3635888,34.0693221 28.4244661,33.9708728 C29.9318653,33.8310412 31.3636774,33.6448649 32.6852548,33.4160656 C33.2024014,33.3264776 33.704218,33.2310412 34.1852105,33.1286043 C36.9150288,32.5472131 38.3801595,31.8998937 39.0763934,31.4589544 C39.1301817,31.3428711 39.1804253,31.2249269 39.2278334,31.1053877 C39.4520248,30.5395038 39.6049712,29.9378201 39.6735578,29.3104386 C39.7010279,29.0595747 39.7161808,28.8049889 39.7161808,28.54677 C39.7161808,28.1227559 39.6761276,27.7082233 39.6033762,27.3051218 C39.2179973,25.169455 37.8577847,23.3736198 35.9989455,22.3947984 C36.0281879,22.1232875 36.0440496,21.8477005 36.0440496,21.5683917 C36.0440496,17.3530616 32.6269473,13.935782 28.4116172,13.935782 C25.7438281,13.935782 23.3972619,15.3052991 22.0326185,17.3787594 C23.3162694,18.3268321 24.1490563,19.850093 24.1490563,21.5683917" id="Fill-23" fill="#FFCC09"></path>
                                <path d="M3.69481613,31.2318121 C4.07877714,31.5526805 5.02295082,32.0873726 6.89836066,32.6307488 C6.9027027,31.6034559 7.07709349,30.6170137 7.39237926,29.695525 C5.18582189,30.2847142 4.11103234,30.8839167 3.69481613,31.2318121" id="Fill-25" fill="#7C7C7C"></path>
                                <path d="M8.90334958,35.685237 C12.3862029,36.4271954 16.8754364,36.8357023 21.5442003,36.8357023 C22.2873106,36.8357023 23.0248383,36.8242712 23.7554541,36.8038901 C24.2216482,36.790864 24.6848294,36.7742933 25.1436686,36.7532034 C26.2659548,36.7015419 27.3636066,36.6259548 28.4244838,36.5275942 C29.931883,36.3876739 31.3636952,36.2014976 32.6852725,35.9726983 C33.1934692,35.8847054 33.6867789,35.790864 34.1601506,35.6904652 C31.2240408,36.1859903 27.8531945,36.4934781 24.2976783,36.5859016 C23.5415419,36.6055738 22.7775188,36.6157643 22.0073815,36.6157643 C16.5793797,36.6157643 11.4422065,36.1214798 7.44716881,35.2199291 C7.24016837,35.17323 7.03547187,35.1258219 6.83476296,35.0769074 C6.35474524,34.959938 5.89971644,34.8379176 5.46666371,34.7113779 C5.86887904,34.8657421 6.3417191,35.026132 6.89838724,35.1874081 C7.47525919,35.3545326 8.13914931,35.5224546 8.90334958,35.685237" id="Fill-27" fill="#FFCC09"></path>
                                <path d="M20.5785733,24.6564377 C20.9270004,24.8522729 21.26249,25.0682233 21.5808773,25.3062384 C21.691821,25.3892689 21.8004608,25.4751351 21.9075055,25.5628622 C21.9686486,25.6130173 22.027665,25.6653877 22.0873017,25.7169606 C22.4817191,25.4176252 22.8321843,25.063704 23.1271777,24.6658307 C23.5613824,24.0801861 23.8751617,23.4001684 24.0329818,22.6622862 C24.1084803,22.3095171 24.1490651,21.9437218 24.1490651,21.5683562 C24.1490651,19.8501462 23.3162782,18.3267966 22.0326274,17.378724 C21.1683828,16.7403545 20.100062,16.3624191 18.943128,16.3624191 C16.0680727,16.3624191 13.7372796,18.6932122 13.7372796,21.5683562 C13.7372796,22.3203279 13.8978467,23.0341958 14.1847763,23.679743 C14.7979796,23.5507222 15.4334249,23.4818697 16.0849092,23.4818697 C17.7176961,23.4818697 19.2498183,23.9096057 20.5785733,24.6564377" id="Fill-29" fill="#FFD947"></path>
                                <path d="M8.39987594,27.6364909 C7.98259637,28.2723793 7.64285335,28.9630306 7.39234382,29.6955073 C7.07705804,30.616996 6.90266726,31.6035268 6.89841382,32.6307311 C7.47519716,32.7978556 8.1391759,32.9658662 8.90337616,33.1286486 C12.3861409,33.870607 16.8753744,34.2791139 21.5442268,34.2791139 C22.2873372,34.2791139 23.0248649,34.2675942 23.7554807,34.2473017 C24.2216748,34.234187 24.6847674,34.2176163 25.1436952,34.1964377 C25.226903,33.6995835 25.2724502,33.1898804 25.2724502,32.6693664 C25.2724502,31.0574922 24.8561453,29.5435357 24.1270359,28.2265662 C24.011307,28.0175277 23.8873372,27.8137173 23.7562782,27.6150465 C23.4781214,27.1937794 23.1665574,26.7967922 22.8247763,26.427984 C22.592521,26.1772973 22.3459991,25.9404342 22.0873372,25.7169517 C22.0276119,25.6653788 21.9685955,25.6130084 21.907541,25.562942 C21.8004962,25.4751263 21.6917678,25.3892601 21.5808241,25.3062295 C21.2624369,25.0683031 20.9269473,24.8522641 20.5786088,24.6564289 C19.2497652,23.9095968 17.7176429,23.4818609 16.0849446,23.4818609 C15.4333717,23.4818609 14.7979265,23.5508019 14.1847231,23.6797342 C12.770545,23.9772087 11.4773239,24.6008684 10.3844572,25.4669739 C9.61281347,26.0785822 8.94165707,26.8109703 8.39987594,27.6364909" id="Fill-31" fill="#FFE379"></path>
                                <path d="M25.7482499,47.5200266 C23.4831192,44.986132 22.956934,42.3687638 23.0103677,40.3548516 C22.5242357,40.3634471 22.0361542,40.3694728 21.5442623,40.3694728 C16.3940629,40.3694728 11.5198937,39.9004431 7.72919805,39.0449712 C7.53283119,39.0006646 7.33850244,38.9556491 7.14816128,38.9092158 C6.0785113,38.6487816 5.13212229,38.3630926 4.30580416,38.05144 L4.51510855,40.3228622 L6.87549845,61.8827204 C6.87549845,63.9212672 13.6612317,65.5737262 22.0318121,65.5737262 C22.8741693,65.5737262 23.7002215,65.5568011 24.5052725,65.5246345 C31.9645547,61.3337616 29.970226,52.2428445 25.7482499,47.5200266" id="Fill-33" fill="#A8A8A8"></path>
                                <path d="M7.72922463,39.0450066 C11.5198316,39.9003899 16.3940895,40.3694196 21.5442003,40.3694196 C22.0361808,40.3694196 22.5242623,40.3634825 23.0103057,40.3547984 C23.0383075,39.3022508 23.224218,38.4150554 23.4036597,37.7905095 C22.7884183,37.8042446 22.169012,37.8127514 21.5442003,37.8127514 C16.3940895,37.8127514 11.5198316,37.3437218 7.72922463,36.4882499 C7.53285778,36.4439433 7.33852902,36.3990164 7.14809925,36.3525831 C5.97149313,36.0660966 4.94393443,35.7490385 4.06152415,35.4004342 L4.30583075,38.0514754 C5.13206026,38.363128 6.07853788,38.6487284 7.14809925,38.9092512 C7.33852902,38.9555959 7.53285778,39.0007 7.72922463,39.0450066" id="Fill-35" fill="#8C8C8C"></path>
                                <path d="M37.1880992,61.8827204 L39.5484891,40.3228622 L39.7967833,37.6274258 C38.7608064,38.1085069 37.4776872,38.5349136 35.9404253,38.9092158 C32.5955428,39.723837 28.3176518,40.2214887 23.7172973,40.3409393 C23.4829154,40.3471422 23.2464067,40.3506868 23.0103412,40.3548516 C22.9569074,42.3687638 23.4830926,44.986132 25.7482233,47.5200266 C29.9701994,52.2428445 31.9646167,61.3337616 24.5052459,65.5246345 C31.6991316,65.236996 37.1880992,63.716039 37.1880992,61.8827204" id="Fill-37" fill="#C9C9C9"></path>
                                <path d="M23.7173327,37.784342 C23.6133008,37.7870004 23.5080284,37.7881524 23.403642,37.7904564 C23.2242889,38.4150022 23.0382898,39.3022862 23.010288,40.3548339 C23.2464422,40.350669 23.4828622,40.3471245 23.7173327,40.3410102 C28.3176872,40.221471 32.5954896,39.7238192 35.9404608,38.9091981 C37.477634,38.5348959 38.7608418,38.1084891 39.7968188,37.6274081 L40.0431635,34.9537705 C38.9669561,35.4830572 37.6015153,35.9480106 35.9404608,36.3526185 C32.5954896,37.1671511 28.3176872,37.6648028 23.7173327,37.784342" id="Fill-39" fill="#B2B2B2"></path>
                                <path d="M39.6034116,27.3051396 C39.6760744,27.708241 39.7161276,28.1227736 39.7161276,28.5467878 C39.7161276,28.8050066 39.7010634,29.0595924 39.6735933,29.3104564 C39.6050066,29.9378378 39.4520603,30.5395215 39.2278689,31.1054054 C39.2918476,31.1505095 39.346965,31.1926894 39.3937528,31.2318564 C39.3135578,31.2987594 39.2087284,31.3752326 39.0764289,31.4589721 C38.3801063,31.8999114 36.9149756,32.5471422 34.1851573,33.1286221 C33.7042534,33.2310589 33.2024369,33.3264953 32.6852902,33.4160833 C31.3637129,33.6448826 29.9318121,33.8310589 28.4245016,33.9708906 C27.3636243,34.0693398 26.2659725,34.1449269 25.1436863,34.1964998 C24.6848471,34.2175897 24.2216659,34.2341604 23.7554719,34.2471865 C23.024856,34.2675676 22.2873283,34.2790873 21.544218,34.2790873 C16.8754541,34.2790873 12.386132,33.8705804 8.9033673,33.1286221 C8.13916704,32.9658396 7.47527692,32.797829 6.89840496,32.6307931 C5.02299513,32.0874169 4.07873283,31.5527249 3.69477182,31.2318564 C4.11107665,30.883961 5.18586619,30.2845813 7.39233496,29.6955693 C7.64284448,28.963004 7.98258751,28.2723527 8.39986708,27.6364643 C8.94164821,26.8109437 9.61280461,26.0785556 10.384537,25.4669473 C9.23327426,25.6523261 8.14873726,25.8673017 7.14811697,26.110988 C2.34448383,27.2809482 0.00943730616,28.9559149 0.00943730616,31.2318564 C0.00943730616,32.9502437 1.34164821,34.3258751 4.06154187,35.4003988 C4.94395215,35.7490031 5.97151086,36.0660611 7.14811697,36.3526362 C7.33854674,36.3989809 7.5328755,36.4439965 7.72924236,36.4883031 C11.5198494,37.3436863 16.3941072,37.812716 21.544218,37.812716 C22.1690297,37.812716 22.788436,37.8042091 23.4036774,37.7904741 C23.5079752,37.7881701 23.6133363,37.7870182 23.7173682,37.7843598 C28.3177226,37.6648206 32.595525,37.1671688 35.9404076,36.3526362 C37.6014621,35.9480284 38.966903,35.4830749 40.0431989,34.9536996 C40.3089499,34.8230837 40.5560922,34.6882144 40.7866637,34.5496234 C42.3223305,33.6262738 43.0791759,32.5264067 43.0791759,31.2318564 C43.0791759,29.6396544 41.9347364,28.341914 39.6034116,27.3051396" id="Fill-41" fill="#C6C6C6"></path>
                                <path d="M19.3876562,56.8632698 C19.3876562,59.6527249 21.1856181,61.9140452 23.4036066,61.9140452 C25.621595,61.9140452 27.4196455,59.6527249 27.4196455,56.8632698 C27.4196455,54.0738148 25.621595,51.8125831 23.4036066,51.8125831 C21.1856181,51.8125831 19.3876562,54.0738148 19.3876562,56.8632698" id="Fill-43" fill="#C9C9C9"></path>
                                <path d="M15.5862915,51.8125742 C15.5862915,52.7311387 16.178405,53.475844 16.908755,53.475844 C17.639105,53.475844 18.231307,52.7311387 18.231307,51.8125742 C18.231307,50.8940984 17.639105,50.149393 16.908755,50.149393 C16.178405,50.149393 15.5862915,50.8940984 15.5862915,51.8125742" id="Fill-45" fill="#C9C9C9"></path>
                            </g>
                        </g>
                    </g>
                </g>
            </g>
        </g>
    </g>
</svg>