<?xml version="1.0" encoding="UTF-8"?>
<svg width="31px" height="31px" viewBox="0 0 31 31" version="1.1" xmlns="http://www.w3.org/2000/svg" xmlns:xlink="http://www.w3.org/1999/xlink">
    <!-- Generator: Sketch 50.2 (55047) - http://www.bohemiancoding.com/sketch -->
    <title>messenger</title>
    <desc>Created with Sketch.</desc>
    <defs></defs>
    <g id="Page-1" stroke="none" stroke-width="1" fill="none" fill-rule="evenodd">
        <g id="Landing-Page-HIFI-Final-(Notification)" transform="translate(-725.000000, -593.000000)" fill-rule="nonzero">
            <g id="Group-26" transform="translate(323.000000, 129.000000)">
                <g id="Group-3-Copy" transform="translate(370.000000, 456.000000)">
                    <g id="Group-2">
                        <g id="Group-23">
                            <g id="messenger" transform="translate(32.000000, 8.000000)">
                                <path d="M15.5,0.00301424906 C7.12303711,-0.162141566 0.191267578,6.48017345 0,14.8557164 C0.0218574219,19.1191944 1.90989062,23.1593367 5.16664648,25.9112878 L5.16664648,30.3542093 C5.16664648,30.7108562 5.45581836,31 5.8125,31 C5.9335332,31 6.05214453,30.965976 6.15477148,30.9018631 L9.75464648,28.6533102 C11.5887324,29.3547381 13.5363437,29.7124143 15.5,29.7084791 C23.8769629,29.8736349 30.8087324,23.2313199 31,14.8557769 C30.8087324,6.48017345 23.8769629,-0.162141566 15.5,0.00301424906 Z" id="Shape" fill="#FFFFFF"></path>
                                <path d="M25.8676663,10.2584428 C25.6723928,10.0020822 25.3143912,9.92536688 25.0276947,10.078436 L18.2027788,13.7231674 L13.9569014,10.1568387 C13.6965367,9.93820299 13.3082044,9.95272647 13.0657427,10.1902849 L5.19081618,17.9040022 C4.93531172,18.1557828 4.93654218,18.5628019 5.19364623,18.8130759 C5.39919412,19.0132107 5.71437575,19.0575645 5.96914193,18.9222129 L12.7940578,15.2774815 L17.0438726,18.8450757 C17.3042374,19.0637114 17.6925697,19.0491879 17.9350313,18.8116295 L25.8099579,11.0979122 C26.0394382,10.8710204 26.0640473,10.5134776 25.8676663,10.2584428 Z" id="Shape" fill="#2196F3"></path>
                            </g>
                        </g>
                    </g>
                </g>
            </g>
        </g>
    </g>
</svg>