<?xml version="1.0" encoding="UTF-8"?>
<svg width="99px" height="101px" viewBox="0 0 99 101" version="1.1" xmlns="http://www.w3.org/2000/svg" xmlns:xlink="http://www.w3.org/1999/xlink">
    <!-- Generator: Sketch 50.2 (55047) - http://www.bohemiancoding.com/sketch -->
    <title>Group 11</title>
    <desc>Created with Sketch.</desc>
    <defs>
        <polygon id="path-1" points="0.0622318923 0.104270174 91.1197523 0.104270174 91.1197523 100.562693 0.0622318923 100.562693"></polygon>
        <polygon id="path-3" points="0.0618792269 0.0394493204 22.0245136 0.0394493204 22.0245136 23.929007 0.0618792269 23.929007"></polygon>
        <polygon id="path-5" points="0 0.0863673833 23.8735785 0.0863673833 23.8735785 79.751883 0 79.751883"></polygon>
    </defs>
    <g id="Page-1" stroke="none" stroke-width="1" fill="none" fill-rule="evenodd">
        <g id="Landing-Page-HIFI-Final" transform="translate(-744.000000, -3129.000000)">
            <g id="Group-11" transform="translate(193.000000, 2526.000000)">
                <g id="Group-13" transform="translate(66.000000, 599.000000)">
                    <g id="Group-11" transform="translate(484.000000, 4.000000)">
                        <g id="Group-7-Copy" opacity="0.247265625" transform="translate(50.000000, 50.819672) scale(-1, 1) translate(-50.000000, -50.819672) ">
                            <g id="Group-3">
                                <mask id="mask-2" fill="white">
                                    <use xlink:href="#path-1"></use>
                                </mask>
                                <g id="Clip-2"></g>
                                <path d="M76.3603318,10.9822496 C58.10399,-2.79835409 29.9597102,-5.55048261 15.7768653,14.9288888 C1.59402044,35.4082602 27.8014227,45.6323842 13.4130578,55.6100155 C-0.755078903,65.434656 -7.45213946,86.0444308 12.8361575,95.6962507 C32.6242465,105.109851 65.5042833,100.544289 68.7436188,84.785572 C71.9829543,69.0268555 67.2553394,60.3531266 82.7514106,52.0830835 C98.2474819,43.812909 89.9302939,21.2254153 76.3603318,10.9822496" id="Fill-1" fill="#F6E8B2" mask="url(#mask-2)"></path>
                            </g>
                            <g id="Group-6" transform="translate(76.298453, 59.751800)">
                                <mask id="mask-4" fill="white">
                                    <use xlink:href="#path-3"></use>
                                </mask>
                                <g id="Clip-5"></g>
                                <path d="M0.0618792269,11.9841625 C0.0618792269,18.5810239 4.97833614,23.929007 11.0432095,23.929007 C17.1079516,23.929007 22.0245398,18.5810239 22.0245398,11.9841625 C22.0245398,5.3873011 17.1079516,0.0394493204 11.0432095,0.0394493204 C4.97833614,0.0394493204 0.0618792269,5.3873011 0.0618792269,11.9841625" id="Fill-4" fill="#F6E8B2" mask="url(#mask-4)"></path>
                            </g>
                        </g>
                        <g id="Group" transform="translate(54.644563, 51.164193) rotate(-30.000000) translate(-54.644563, -51.164193) translate(37.644563, 10.664193)">
                            <g id="Group-6" transform="translate(0.000000, 0.012110)">
                                <g id="Group-3">
                                    <mask id="mask-6" fill="white">
                                        <use xlink:href="#path-5"></use>
                                    </mask>
                                    <g id="Clip-2"></g>
                                    <path d="M8.07364742,53.0023729 L8.07364742,31.5382858 C8.07364742,20.8062423 15.6630729,18.1912667 15.6630729,18.1912667 C18.148181,17.1999803 21.1489194,20.0077389 23.8735785,23.835337 L23.8735785,0.129828189 C23.8735785,0.129828189 0,-1.54397676 0,15.8832866 L0,57.6299513 C0,70.4296362 13.3138384,79.7519421 22.5580663,79.7519421 L22.5580663,61.7012357 L15.5185349,63.2303057 C15.5185349,63.2303057 8.07364742,58.7130015 8.07364742,53.0023729" id="Fill-1" fill="#A8A8A8" mask="url(#mask-6)"></path>
                                </g>
                                <path d="M11.0274209,50.540895 L11.0274209,33.9997637 C11.0274209,29.076808 16.043322,26.4816226 23.8735785,26.4816226 L23.8735785,23.835337 C21.1489194,20.0077389 18.148181,17.1999803 15.6630729,18.1912667 C15.6630729,18.1912667 8.07364742,20.8062423 8.07364742,31.5382858 L8.07364742,53.0023729 C8.07364742,58.7130015 15.5185349,63.2303057 15.5185349,63.2303057 L22.5580663,61.7012357 L22.5580663,56.7451977 C22.5580663,56.7451977 11.0274209,58.0237877 11.0274209,50.540895" id="Fill-4" fill="#8C8C8C"></path>
                            </g>
                            <g id="Group-15" transform="translate(14.670408, 0.110570)">
                                <path d="M9.20335746,26.3822577 C4.26051297,26.3822577 0.388509821,20.5947324 0.388509821,13.2064589 C0.388509821,5.81808694 4.26051297,0.0304632501 9.20335746,0.0304632501 C14.1463004,0.0304632501 18.0182051,5.81808694 18.0182051,13.2064589 C18.0182051,20.5947324 14.1463004,26.3822577 9.20335746,26.3822577" id="Fill-7" fill="#C9C9C9"></path>
                                <path d="M2.3577315,13.2064195 C2.3577315,19.395658 5.42266529,24.413036 9.20339684,24.413036 C12.9841284,24.413036 16.0489637,19.395658 16.0489637,13.2064195 C16.0489637,7.01708266 12.9841284,1.99970462 9.20339684,1.99970462 C5.42266529,1.99970462 2.3577315,7.01708266 2.3577315,13.2064195" id="Fill-9" fill="#FFCC09"></path>
                                <path d="M7.88783538,79.6525772 C3.51782602,79.6525772 0.0946979767,74.5997539 0.0946979767,68.1492049 C0.0946979767,61.698656 3.51782602,56.6458327 7.88783538,56.6458327 C12.2578447,56.6458327 15.6809728,61.698656 15.6809728,68.1492049 C15.6809728,74.5997539 12.2578447,79.6525772 7.88783538,79.6525772" id="Fill-11" fill="#C9C9C9"></path>
                                <path d="M2.06384089,68.1492049 C2.06384089,73.4146999 4.67133363,77.6833949 7.88779599,77.6833949 C11.1043568,77.6833949 13.7117511,73.4146999 13.7117511,68.1492049 C13.7117511,62.8836115 11.1043568,58.6149166 7.88779599,58.6149166 C4.67133363,58.6149166 2.06384089,62.8836115 2.06384089,68.1492049" id="Fill-13" fill="#FFCC09"></path>
                            </g>
                        </g>
                    </g>
                </g>
            </g>
        </g>
    </g>
</svg>