<?xml version="1.0" encoding="utf-8"?>
<!-- Generator: Adobe Illustrator 22.1.0, SVG Export Plug-In . SVG Version: 6.00 Build 0)  -->
<svg version="1.1" id="Capa_1" xmlns="http://www.w3.org/2000/svg" xmlns:xlink="http://www.w3.org/1999/xlink" x="0px" y="0px"
	 viewBox="0 0 455.7 455.7" style="enable-background:new 0 0 455.7 455.7;" xml:space="preserve">
<style type="text/css">
	.st0{fill:#00C500;}
	.st1{fill:#FFFFFF;}
</style>
<g>
	<path class="st0" d="M227.8,12.3C102,12.3,0,93.4,0,193.5c0,92,86.2,167.9,197.8,179.6c6.8,0.7,11.7,6.9,11,13.7l-4.8,42.8
		c-1.1,9.7,9,16.8,17.8,12.5c94.3-45.5,150.7-92.3,184.4-132.9c6.1-7.4,26.1-35.4,30.2-42.7c8.6-15.6,14.6-32.4,17.4-49.9
		c1-5.5,1.6-10.1,1.8-13.8c0.4-6-0.1-14.9-0.2-17.7C449.8,88.9,350.1,12.3,227.8,12.3z M137.5,253.5H90.9c-6.4,0-11.7-5.2-11.7-11.7
		v-88c0-6.4,5.2-11.7,11.7-11.7c6.4,0,11.7,5.2,11.7,11.7v76.3h35c6.4,0,11.7,5.2,11.7,11.7C149.1,248.3,143.9,253.5,137.5,253.5z
		 M183.5,244.4c0,5-4.1,9.1-9.1,9.1h-5.1c-5,0-9.1-4.1-9.1-9.1v-93.1c0-5,4.1-9.1,9.1-9.1h5.1c5,0,9.1,4.1,9.1,9.1V244.4z
		 M291.9,241.4c0,6.5-5.3,12.2-11.8,12.1c-3.1,0-5.8-1.2-7.9-3.2c-0.7-0.7-47.9-61.9-47.9-61.9v53.4c0,6.4-5.2,11.7-11.7,11.7
		c-6.4,0-11.7-5.2-11.7-11.7v-87.5c0-6.3,4.9-11.9,11.2-12.1c3.6-0.1,6.9,1.4,9.1,3.9c0.7,0.8,47.2,61.5,47.2,61.5v-53.7
		c0-6.4,5.2-11.7,11.7-11.7c6.4,0,11.7,5.2,11.7,11.7V241.4z M367.6,230.2c6.4,0,11.7,5.2,11.7,11.7c0,6.4-5.2,11.7-11.7,11.7H321
		c-6.4,0-11.7-5.2-11.7-11.7v-88c0-6.4,5.2-11.7,11.7-11.7h46.6c6.4,0,11.7,5.2,11.7,11.7c0,6.4-5.2,11.7-11.7,11.7h-35v20.7h35
		c6.4,0,11.7,5.2,11.7,11.7c0,6.4-5.2,11.7-11.7,11.7h-35v20.7H367.6z"/>
	<path class="st1" d="M137.5,230.2h-35v-76.3c0-6.4-5.2-11.7-11.7-11.7c-6.4,0-11.7,5.2-11.7,11.7v88c0,6.4,5.2,11.7,11.7,11.7h46.6
		c6.4,0,11.7-5.2,11.7-11.7C149.1,235.4,143.9,230.2,137.5,230.2z"/>
	<path class="st1" d="M174.4,142.2h-5.1c-5,0-9.1,4.1-9.1,9.1v93.1c0,5,4.1,9.1,9.1,9.1h5.1c5,0,9.1-4.1,9.1-9.1v-93.1
		C183.5,146.3,179.4,142.2,174.4,142.2z"/>
	<path class="st1" d="M280.2,142.2c-6.4,0-11.7,5.2-11.7,11.7v53.7c0,0-46.5-60.7-47.2-61.5c-2.2-2.5-5.5-4-9.1-3.9
		c-6.3,0.2-11.2,5.8-11.2,12.1v87.5c0,6.4,5.2,11.7,11.7,11.7c6.4,0,11.7-5.2,11.7-11.7v-53.4c0,0,47.2,61.2,47.9,61.9
		c2.1,2,4.8,3.2,7.9,3.2c6.5,0.1,11.8-5.7,11.8-12.1v-87.5C291.9,147.5,286.7,142.2,280.2,142.2z"/>
	<path class="st1" d="M367.6,209.5c6.4,0,11.7-5.2,11.7-11.7c0-6.4-5.2-11.7-11.7-11.7h-35v-20.7h35c6.4,0,11.7-5.2,11.7-11.7
		c0-6.4-5.2-11.7-11.7-11.7H321c-6.4,0-11.7,5.2-11.7,11.7v88c0,6.4,5.2,11.7,11.7,11.7h46.6c6.4,0,11.7-5.2,11.7-11.7
		c0-6.4-5.2-11.7-11.7-11.7h-35v-20.7H367.6z"/>
</g>
</svg>
