<?xml version="1.0" encoding="UTF-8"?>
<svg width="25px" height="17px" viewBox="0 0 25 17" version="1.1" xmlns="http://www.w3.org/2000/svg" xmlns:xlink="http://www.w3.org/1999/xlink">
    <!-- Generator: Sketch 50.2 (55047) - http://www.bohemiancoding.com/sketch -->
    <title>malasya (2)</title>
    <desc>Created with Sketch.</desc>
    <defs></defs>
    <g id="Page-1" stroke="none" stroke-width="1" fill="none" fill-rule="evenodd">
        <g id="Landing-Page-HIFI-Final" transform="translate(-239.000000, -26.000000)" fill-rule="nonzero">
            <g id="Group-16">
                <g id="Group-14" transform="translate(239.000000, 20.000000)">
                    <g id="malasya-(2)" transform="translate(0.000000, 6.000000)">
                        <path d="M24.9513158,1.18114035 L0,1.18114035 L0,0.443664717 C0,0.206091618 0.192641326,0.0134502924 0.430214425,0.0134502924 L24.5211014,0.0134502924 C24.7586745,0.0134502924 24.9513158,0.206091618 24.9513158,0.443664717 L24.9513158,1.18114035 Z" id="Shape" fill="#FF4B55"></path>
                        <rect id="Rectangle-path" fill="#F5F5F5" x="0" y="1.18084795" width="24.9512671" height="1.16764133"></rect>
                        <rect id="Rectangle-path" fill="#FF4B55" x="0" y="2.34897661" width="24.9512671" height="1.16764133"></rect>
                        <rect id="Rectangle-path" fill="#F5F5F5" x="0" y="3.5161306" width="24.9512671" height="1.16764133"></rect>
                        <rect id="Rectangle-path" fill="#FF4B55" x="0" y="4.68425926" width="24.9512671" height="1.16764133"></rect>
                        <rect id="Rectangle-path" fill="#F5F5F5" x="0" y="5.85190058" width="24.9512671" height="1.16764133"></rect>
                        <rect id="Rectangle-path" fill="#FF4B55" x="0" y="7.01954191" width="24.9512671" height="1.16764133"></rect>
                        <rect id="Rectangle-path" fill="#F5F5F5" x="0" y="8.18718324" width="24.9512671" height="1.16764133"></rect>
                        <polygon id="Shape" fill="#FF4B55" points="24.9512671 10.5225634 0 10.5225634 0 8.61739766 0.430214425 8.61739766 0.430311891 9.35482456 24.9512671 9.35482456"></polygon>
                        <rect id="Rectangle-path" fill="#F5F5F5" x="0" y="10.5224659" width="24.9512671" height="1.16764133"></rect>
                        <rect id="Rectangle-path" fill="#FF4B55" x="0" y="11.6901072" width="24.9512671" height="1.16764133"></rect>
                        <rect id="Rectangle-path" fill="#F5F5F5" x="0" y="12.8582359" width="24.9512671" height="1.16764133"></rect>
                        <rect id="Rectangle-path" fill="#FF4B55" x="0" y="14.0253899" width="24.9512671" height="1.16764133"></rect>
                        <path d="M24.5210526,16.3608674 L0.430214425,16.3608674 C0.192641326,16.3608674 0,16.1682261 0,15.930653 L0,15.1931774 L24.9512671,15.1931774 L24.9512671,15.930653 C24.9512671,16.1682749 24.7586257,16.3608674 24.5210526,16.3608674 Z" id="Shape" fill="#F5F5F5"></path>
                        <path d="M15.0568226,9.35482456 L0.430214425,9.35482456 C0.192641326,9.35482456 0,9.16218324 0,8.92461014 L0,0.443664717 C0,0.206091618 0.192641326,0.0134502924 0.430214425,0.0134502924 L15.0568226,0.0134502924 C15.2943957,0.0134502924 15.487037,0.206091618 15.487037,0.443664717 L15.487037,8.92461014 C15.4869883,9.1622807 15.2943957,9.35482456 15.0568226,9.35482456 Z" id="Shape" fill="#41479B"></path>
                        <g id="Group" transform="translate(2.923977, 1.267057)" fill="#FFE15A">
                            <path d="M1.1628655,3.4124269 C1.1628655,1.78538012 2.48352827,0.465545809 4.10906433,0.465545809 C4.51807992,0.465545809 4.90696881,0.549269006 5.26115984,0.700146199 C5.30711501,0.719736842 5.34176413,0.655750487 5.30048733,0.627582846 C4.71447368,0.228654971 3.99780702,0.0100877193 3.22909357,0.0500487329 C1.53908382,0.13791423 0.157163743,1.49917154 0.0479044834,3.18796296 C-0.0791423002,5.15229045 1.47524366,6.77953216 3.40847953,6.77953216 C4.10711501,6.77953216 4.75653021,6.56427875 5.2958577,6.19931774 C5.33737817,6.17119883 5.30297271,6.10711501 5.25682261,6.12665692 C4.90380117,6.27636452 4.51647173,6.35940546 4.10916179,6.35940546 C2.48352827,6.35935673 1.1628655,5.03952242 1.1628655,3.4124269" id="Shape"></path>
                            <path d="M7.89770955,3.4124269 L9.14322612,2.93050682 C9.20477583,2.90667641 9.18382066,2.81471735 9.11798246,2.81998051 L7.78718324,2.92655945 L8.70170565,1.94897661 C8.74683236,1.90077973 8.68806043,1.82714425 8.63104288,1.86038012 L7.47519493,2.53464912 L7.87412281,1.25901559 C7.89381092,1.19605263 7.80891813,1.15516569 7.77202729,1.20984405 L7.02378168,2.31827485 L6.83182261,0.995272904 C6.82236842,0.929922027 6.72802144,0.929873294 6.71846979,0.995224172 L6.5958577,1.83235867 L6.54498051,2.18664717 L6.52538986,2.31832359 L5.77714425,1.21081871 C5.74020468,1.15614035 5.65521442,1.19707602 5.67504873,1.26003899 L6.0754386,2.53460039 L4.91968811,1.86033138 C4.86267057,1.82704678 4.80389864,1.90073099 4.84902534,1.94892788 L5.76349903,2.92651072 L4.43235867,2.81993177 C4.36652047,2.81466862 4.34551657,2.90662768 4.40711501,2.93045809 L5.65375244,3.41237817 L4.40706628,3.89439571 C4.3454191,3.91822612 4.36647173,4.01018519 4.43230994,4.00492203 L5.76349903,3.89834308 L4.84897661,4.87836257 C4.80389864,4.92665692 4.86281676,5.00019493 4.91978558,4.9668616 L6.07548733,4.29020468 L5.67509747,5.56476608 C5.65531189,5.62772904 5.74020468,5.66871345 5.77719298,5.61398635 L6.5254386,4.50648148 L6.54502924,4.6412768 L6.59590643,4.99244639 L6.71856725,5.83182261 C6.72811891,5.89722222 6.82246589,5.89712476 6.83192008,5.83177388 L7.02387914,4.50657895 L7.77212476,5.61500975 C7.80906433,5.66968811 7.89395712,5.62889864 7.87422027,5.56583821 L7.4752924,4.29020468 L8.63099415,4.9668616 C8.68796296,5.00019493 8.74683236,4.92665692 8.70180312,4.87836257 L7.78723197,3.89834308 L9.11807992,4.00492203 C9.18391813,4.01018519 9.20492203,3.91822612 9.14332359,3.89439571 L7.89770955,3.4124269 Z" id="Shape"></path>
                        </g>
                    </g>
                </g>
            </g>
        </g>
    </g>
</svg>